<svg width="102" height="53" viewBox="0 0 102 53" fill="none" xmlns="http://www.w3.org/2000/svg">
    <style>
        .fill {
            fill: #ffffff;
        }
    </style>
    <path
        d="M0 52.5V0H17.55C23.35 0 28.45 1.1 32.85 3.3C37.25 5.45 40.65 8.525 43.05 12.525C45.5 16.475 46.725 21.05 46.725 26.25C46.725 31.45 45.5 36.05 43.05 40.05C40.65 44 37.25 47.075 32.85 49.275C28.45 51.425 23.35 52.5 17.55 52.5H0ZM17.55 41.625C21.05 41.625 24.05 41.025 26.55 39.825C29.05 38.575 30.95 36.8 32.25 34.5C33.6 32.15 34.275 29.4 34.275 26.25C34.275 23.1 33.6 20.375 32.25 18.075C30.95 15.725 29.05 13.95 26.55 12.75C24.05 11.5 21.05 10.875 17.55 10.875H12V41.625H17.55Z"
        class="fill"
    />
    <path
        d="M56.6895 52.5V0H82.3395C87.6895 0 91.8895 1.2 94.9395 3.6C98.0395 6 99.5895 9.3 99.5895 13.5C99.5895 16.55 98.7395 19.125 97.0395 21.225C95.3895 23.325 93.0395 24.85 89.9895 25.8V26.175C93.4895 27.025 96.2395 28.575 98.2395 30.825C100.239 33.075 101.239 35.8 101.239 39C101.239 41.7 100.539 44.075 99.1395 46.125C97.7895 48.175 95.8395 49.75 93.2895 50.85C90.7895 51.95 87.8645 52.5 84.5145 52.5H56.6895ZM80.2395 41.25C82.7895 41.25 84.8395 40.6 86.3895 39.3C87.9395 37.95 88.7145 36.225 88.7145 34.125C88.7145 31.975 87.9145 30.25 86.3145 28.95C84.7645 27.65 82.7395 27 80.2395 27H68.6895V41.25H80.2395ZM79.1895 25.5C81.7395 25.5 83.7895 24.85 85.3395 23.55C86.8895 22.2 87.6645 20.475 87.6645 18.375C87.6645 16.225 86.8895 14.5 85.3395 13.2C83.7895 11.9 81.7395 11.25 79.1895 11.25H68.6895V25.5H79.1895Z"
        class="fill"
    />
</svg>
